<svg xmlns="http://www.w3.org/2000/svg" viewBox="0 0 176 176"><defs><style>.cls-1,.cls-2{fill:#9aca3c;}.cls-2{fill-rule:evenodd;}</style></defs><g id="icon_art" data-name="icon art"><path class="cls-1" d="M112.53,136.1H63.47a14,14,0,0,1-14-13.85V14.52A14,14,0,0,1,63.47.67h49.06a14,14,0,0,1,14,13.85V122.25A14,14,0,0,1,112.53,136.1ZM63.47,7.67a7,7,0,0,0-7,6.85V122.25a7,7,0,0,0,7,6.85h49.06a7,7,0,0,0,7-6.85V14.52a7,7,0,0,0-7-6.85Z"/><path class="cls-1" d="M109.31,175.33H66.69a3.5,3.5,0,0,1-3.5-3.5V138.32h7v30h35.62v-30h7v33.51A3.5,3.5,0,0,1,109.31,175.33Z"/><path class="cls-1" d="M88,91.79a20.23,20.23,0,1,1,20.55-20.23A20.42,20.42,0,0,1,88,91.79Zm0-33.45a13.23,13.23,0,1,0,13.55,13.22A13.4,13.4,0,0,0,88,58.34Z"/><path class="cls-2" d="M94.19,27.54A6.19,6.19,0,1,1,88,21.46a6.13,6.13,0,0,1,6.19,6.08"/><path class="cls-1" d="M88,34.11a6.58,6.58,0,1,1,6.69-6.57A6.64,6.64,0,0,1,88,34.11ZM88,22a5.58,5.58,0,1,0,5.69,5.58A5.64,5.64,0,0,0,88,22Z"/></g></svg>